<?xml version="1.0" encoding="UTF-8"?>
<svg id="Layer_2" data-name="Layer 2" xmlns="http://www.w3.org/2000/svg" width="1922.55" height="1084.92" viewBox="0 0 1922.55 1084.92">
  <defs>
    <style>
      .cls-1 {
        fill: #163d56;
      }

      .cls-2 {
        stroke: #08142e;
      }

      .cls-2, .cls-3 {
        fill: none;
        stroke-miterlimit: 10;
      }

      .cls-4 {
        fill: #020f28;
      }

      .cls-3 {
        stroke: #0f2231;
      }
    </style>
  </defs>
  <g id="background">
    <rect class="cls-4" x=".78" y=".94" width="1920" height="1083"/>
  </g>
  <g id="Layer_5" data-name="Layer 5">
    <polyline class="cls-2" points="951.28 1083.44 963.28 1070.44 975.28 1083.44"/>
    <polyline class="cls-2" points="1081.28 1083.44 962.28 940.44 846.28 1083.44"/>
    <polyline class="cls-2" points="654.28 1083.44 795.28 1045.44 962.28 805.44 1131.28 1045.44 1280.28 1083.44"/>
    <polyline class="cls-2" points="880.28 1083.44 963.28 1059.44 1050.28 1083.44"/>
    <polyline class="cls-2" points="1.28 758.44 586.28 498.44 963.28 1026.44 1339.28 498.44 1188.28 .44"/>
    <polyline class="cls-2" points="549.28 1083.44 926.28 976.44 965.28 926.44 1000.28 977.44 1369.28 1083.44"/>
    <polyline class="cls-2" points="409.28 1084.44 761.28 989.44 962.28 670.44 1163.28 989.44 1499.28 1084.44"/>
    <line class="cls-2" x1="269.28" y1="1077.44" x2="731.28" y2="937.44"/>
    <line class="cls-2" x1="260.28" y1="1033.44" x2="704.28" y2="888.44"/>
    <line class="cls-2" x1="253.28" y1="989.44" x2="678.28" y2="845.44"/>
    <line class="cls-2" x1="245.28" y1="949.44" x2="654.28" y2="804.44"/>
    <line class="cls-2" x1="237.28" y1="910.44" x2="633.28" y2="765.44"/>
    <line class="cls-2" x1="231.28" y1="876.44" x2="612.28" y2="731.44"/>
    <line class="cls-2" x1="224.28" y1="841.44" x2="592.28" y2="696.44"/>
    <line class="cls-2" x1="219.28" y1="809.44" x2="575.28" y2="663.44"/>
    <line class="cls-2" x1="212.28" y1="779.44" x2="557.28" y2="635.44"/>
    <line class="cls-2" x1="207.28" y1="751.44" x2="541.28" y2="607.44"/>
    <line class="cls-2" x1="202.28" y1="722.44" x2="526.28" y2="579.44"/>
    <line class="cls-2" x1="175.28" y1="722.44" x2="1.28" y2="663.44"/>
    <line class="cls-2" x1="181.28" y1="756.44" x2="1.28" y2="702.44"/>
    <line class="cls-2" x1="188.28" y1="796.44" x2="1.28" y2="744.44"/>
    <line class="cls-2" x1="195.28" y1="837.44" x2="1.28" y2="786.44"/>
    <line class="cls-2" x1="202.28" y1="882.44" x2=".28" y2="834.44"/>
    <line class="cls-2" x1="211.28" y1="929.44" x2=".28" y2="882.44"/>
    <line class="cls-2" x1="219.28" y1="981.44" x2="1.28" y2="933.44"/>
    <line class="cls-2" x1="227.28" y1="1037.44" x2=".28" y2="989.44"/>
    <line class="cls-2" x1="875.28" y1="906.44" x2="283.28" y2="1084.44"/>
    <polyline class="cls-2" points="67.28 1083.44 829.28 841.44 962.28 618.44 1097.28 841.44 1664.28 1032.44"/>
    <polyline class="cls-2" points="1.28 1049.44 788.28 784.44 962.28 461.44 1136.28 782.44 1921.28 1052.44"/>
    <polyline class="cls-2" points=".28 998.44 751.88 731.12 962.28 298.44 1174.41 731.34 1919.28 1006.44"/>
    <polyline class="cls-2" points=".28 937.44 718.85 683.12 963.28 134.44 1207.66 683.12 1919.28 947.44"/>
    <polyline class="cls-2" points=".28 906.44 687.58 639.97 926.28 52.44"/>
    <polyline class="cls-2" points=".28 832.44 633.42 562.9 823.28 9.44"/>
    <polyline class="cls-2" points=".28 807.44 608.32 529.88 778.28 2.44"/>
    <polyline class="cls-2" points="874.28 904.44 962.28 775.44 1051.28 904.44"/>
    <polyline class="cls-2" points="870.28 31.44 658.52 600.33 1.28 872.44"/>
    <line class="cls-2" x1="586.28" y1="498.44" x2="732.28" y2=".44"/>
    <polyline class="cls-2" points="807.28 1.44 962.28 67.44 1125.28 1.44"/>
    <path class="cls-2" d="M850.28,.44s111,60,112,60S1079.28,1.44,1079.28,1.44"/>
    <polyline class="cls-2" points="872.28 .44 962.28 54.44 1057.28 1.44"/>
    <polyline class="cls-2" points="904.28 1.44 962.28 40.44 1029.28 .44"/>
    <polyline class="cls-2" points="939.28 1.44 961.28 18.44 988.28 .44"/>
    <line class="cls-2" x1="999.58" y1="54.94" x2="1239.03" y2="640.19"/>
    <line class="cls-2" x1="1267.44" y1="600.22" x2="1053.28" y2="30.44"/>
    <line class="cls-2" x1="1101.64" y1="11.67" x2="1293.2" y2="562.9"/>
    <line class="cls-2" x1="1318.28" y1="528.44" x2="1146.28" y2="1.44"/>
  </g>
  <g id="Layer_4" data-name="Layer 4">
    <polyline class="cls-3" points="599.28 212.44 512.28 555.44 .28 336.44"/>
    <line class="cls-3" x1="223.28" y1="6.44" x2="198.28" y2="696.44"/>
    <polyline class="cls-3" points="181.28 1.44 177.28 312.44 171.28 689.44 .28 628.44"/>
    <polyline class="cls-3" points="525.28 580.44 620.28 230.44 232.28 19.44 .28 179.44"/>
    <polyline class="cls-3" points="541.28 607.44 644.28 250.44 242.28 33.44 .28 200.44"/>
    <polyline class="cls-3" points="557.28 635.44 668.28 272.44 253.28 50.44 .28 223.44"/>
    <polyline class="cls-3" points="575.28 664.44 694.28 298.44 264.28 66.44 .28 240.44"/>
    <polyline class="cls-3" points="592.28 696.44 723.28 323.44 275.28 85.44 .28 263.44"/>
    <polyline class="cls-3" points="612.28 730.44 753.28 351.44 289.28 106.44 .28 290.44"/>
    <polyline class="cls-3" points="632.28 767.44 788.28 381.44 304.28 127.44 .28 320.44"/>
    <polyline class="cls-3" points="654.28 805.44 825.28 414.44 320.28 152.44 .28 349.44"/>
    <polyline class="cls-3" points="678.28 846.44 865.28 451.44 338.28 180.44 .28 384.44"/>
    <polyline class="cls-3" points="704.28 890.44 910.28 491.44 359.28 211.44 .28 424.44"/>
    <polyline class="cls-3" points="732.28 938.44 959.28 536.44 382.28 247.44 .28 468.44"/>
    <polyline class="cls-3" points="959.28 536.44 600.28 211.44 223.28 6.44 .28 157.44"/>
    <line class="cls-3" x1="809.28" y1="891.44" x2="223.28" y2="6.44"/>
    <line class="cls-3" x1="816.28" y1="1083.44" x2="511.28" y2="555.44"/>
    <polyline class="cls-3" points="1326.28 212.94 1413.28 555.94 1921.28 339.44"/>
    <line class="cls-3" x1="1702.28" y1="5.94" x2="1727.28" y2="696.94"/>
    <polyline class="cls-3" points="1400.28 580.94 1305.28 230.94 1693.28 19.94 1921.28 177.44"/>
    <polyline class="cls-3" points="1384.28 607.94 1281.28 250.94 1683.28 33.94 1921.28 198.44"/>
    <polyline class="cls-3" points="1368.28 635.94 1257.28 272.94 1673.28 49.44 1921.28 220.44"/>
    <polyline class="cls-3" points="1350.28 664.94 1231.28 298.94 1661.28 66.94 1921.28 238.44"/>
    <polyline class="cls-3" points="1333.28 696.94 1202.28 323.94 1650.28 85.94 1921.28 263.44"/>
    <polyline class="cls-3" points="1313.28 730.94 1172.28 351.94 1636.28 106.94 1921.28 288.44"/>
    <polyline class="cls-3" points="1293.28 767.94 1137.28 381.94 1621.28 127.94 1921.28 317.44"/>
    <polyline class="cls-3" points="1271.28 805.94 1100.28 414.94 1605.28 152.94 1921.28 347.44"/>
    <polyline class="cls-3" points="1247.28 846.94 1060.28 451.94 1587.28 180.94 1921.28 383.44"/>
    <polyline class="cls-3" points="1221.28 890.94 1015.28 491.94 1566.28 211.94 1921.28 423.44"/>
    <polyline class="cls-3" points="1193.28 938.94 966.28 536.94 1543.28 247.94 1921.28 467.44"/>
    <polyline class="cls-3" points="966.28 536.94 1325.28 211.94 1702.28 5.94 1921.28 154.44"/>
    <line class="cls-3" x1="1116.28" y1="891.94" x2="1702.28" y2="5.94"/>
    <line class="cls-3" x1="1109.28" y1="1083.94" x2="1414.28" y2="555.94"/>
    <polyline class="cls-3" points="195.28 1084.44 808.28 890.44 689.28 1083.44"/>
    <polyline class="cls-3" points="814.28 891.44 961.28 945.44 1113.28 892.44"/>
    <polyline class="cls-3" points="1236.28 1084.44 1117.49 891.2 1734.28 1084.44"/>
    <polyline class="cls-3" points="1.28 1002.44 711.28 741.44 961.28 841.44 1215.28 741.44 1921.28 1002.44"/>
    <polyline class="cls-3" points="1920.28 883.44 1292.28 625.44 962.28 763.44 633.2 625.22 1.28 885.44"/>
    <polyline class="cls-3" points="1.28 787.44 571.28 530.44 961.28 704.44 1356.28 531.44 1920.28 784.44"/>
    <polyline class="cls-3" points="1921.28 702.44 1403.28 453.44 961.28 656.44 519.8 453.69 .28 705.44"/>
    <polyline class="cls-3" points="1.28 632.44 478.28 389.44 961.28 619.44 1449.64 389.18 1921.28 631.44 1754.28 689.94 1748.28 312.94 1744.28 .94"/>
    <polyline class="cls-3" points="1921.28 568.44 1483.28 335.44 963.28 587.44 440.98 335.23 1.28 569.44"/>
    <polyline class="cls-3" points=".28 512.44 411.28 288.44 962.28 560.44 1515.03 289.22 1921.28 513.44"/>
    <line class="cls-3" x1="171.28" y1="689.44" x2="235.28" y2="1083.44"/>
    <line class="cls-3" x1="197.28" y1="697.44" x2="271.28" y2="1083.44"/>
    <line class="cls-3" x1="1755.28" y1="688.44" x2="1690.28" y2="1083.44"/>
    <line class="cls-3" x1="1727.28" y1="697.44" x2="1654.28" y2="1084.44"/>
  </g>
  <g id="Layer_3" data-name="Layer 3">
    <path class="cls-1" d="M817.78,894.94c-1.4,4.19-8.63,5.37-13,3s-6.83-8.46-4.72-12.34,8.36-4.03,12.72-1.66,6,8,5,11Z"/>
    <path class="cls-1" d="M719.46,744.68c-1.26,3.78-7.79,4.85-11.74,2.71s-6.17-7.63-4.27-11.14,7.54-3.64,11.49-1.5c3.94,2.14,5.42,7.22,4.51,9.93Z"/>
    <path class="cls-1" d="M641.4,628.27c-1.11,3.34-6.87,4.28-10.35,2.39s-5.44-6.73-3.76-9.82,6.65-3.21,10.13-1.32c3.48,1.89,4.78,6.37,3.98,8.76Z"/>
    <path class="cls-1" d="M577.01,533.73c-.95,2.86-5.9,3.67-8.88,2.05s-4.67-5.78-3.23-8.43,5.71-2.76,8.7-1.13c2.99,1.62,4.1,5.47,3.42,7.52Z"/>
    <path class="cls-1" d="M527.1,457.27c-.98,2.84-5.68,3.76-8.46,2.25s-4.27-5.55-2.83-8.19,5.48-2.86,8.26-1.35c2.78,1.51,3.74,5.26,3.03,7.29Z"/>
    <path class="cls-1" d="M482.24,391.34c-.9,2.43-4.61,3.43-6.71,2.29s-3.07-4.47-1.83-6.76,4.41-2.66,6.51-1.52,2.67,4.25,2.03,5.99Z"/>
    <path class="cls-1" d="M445.77,337.74c-.8,2.16-4.1,3.05-5.97,2.03s-2.73-3.97-1.63-6.01,3.92-2.36,5.79-1.35,2.38,3.78,1.8,5.32Z"/>
    <path class="cls-1" d="M414.98,290.47c-.8,2.16-4.1,3.05-5.97,2.03s-2.73-3.97-1.63-6.01,3.92-2.36,5.79-1.35,2.38,3.78,1.8,5.32Z"/>
    <path class="cls-1" d="M386.76,249.24c-.73,1.95-3.66,2.78-5.31,1.89s-2.38-3.54-1.38-5.38,3.5-2.16,5.15-1.27,2.07,3.37,1.55,4.77Z"/>
    <path class="cls-1" d="M363,213.85c-.73,1.95-3.66,2.78-5.31,1.89s-2.38-3.54-1.38-5.38,3.5-2.16,5.15-1.27,2.07,3.37,1.55,4.77Z"/>
    <path class="cls-1" d="M342.62,181.5c-.68,1.82-3.43,2.58-4.98,1.74s-2.26-3.32-1.33-5.04,3.28-2,4.83-1.16,1.96,3.16,1.48,4.46Z"/>
    <path class="cls-1" d="M324.33,154.05c-.55,1.53-2.98,2.11-4.38,1.35s-2.09-2.9-1.31-4.33,2.86-1.62,4.26-.86,1.83,2.75,1.43,3.85Z"/>
    <path class="cls-1" d="M307.35,129.72c-.55,1.53-2.98,2.11-4.38,1.35s-2.09-2.9-1.31-4.33,2.86-1.62,4.26-.86,1.83,2.75,1.43,3.85Z"/>
    <path class="cls-1" d="M291.97,106.89c-.55,1.53-2.98,2.11-4.38,1.35s-2.09-2.9-1.31-4.33,2.86-1.62,4.26-.86,1.83,2.75,1.43,3.85Z"/>
    <path class="cls-1" d="M278.76,86.64c-.55,1.53-2.98,2.11-4.38,1.35s-2.09-2.9-1.31-4.33,2.86-1.62,4.26-.86,1.83,2.75,1.43,3.85Z"/>
    <path class="cls-1" d="M265.83,66.81c-.51,1.36-2.54,1.95-3.68,1.33s-1.64-2.46-.94-3.74,2.43-1.52,3.57-.9,1.42,2.34,1.06,3.31Z"/>
    <path class="cls-1" d="M254.53,50.37c-.53,1.35-2.41,2.02-3.41,1.47s-1.37-2.31-.67-3.6,2.28-1.59,3.29-1.05,1.18,2.21,.8,3.17Z"/>
    <path class="cls-1" d="M244.6,34.36c-.53,1.35-2.41,2.02-3.41,1.47s-1.37-2.31-.67-3.6,2.28-1.59,3.29-1.05,1.18,2.21,.8,3.17Z"/>
    <path class="cls-1" d="M234.6,20.36c-.53,1.35-2.41,2.02-3.41,1.47s-1.37-2.31-.67-3.6,2.28-1.59,3.29-1.05,1.18,2.21,.8,3.17Z"/>
    <path class="cls-1" d="M225.55,6.9c-.53,1.35-2.41,2.02-3.41,1.47s-1.37-2.31-.67-3.6,2.28-1.59,3.29-1.05,1.18,2.21,.8,3.17Z"/>
    <path class="cls-1" d="M1206.33,744.34c1.26,3.78,7.79,4.85,11.74,2.71s6.17-7.63,4.27-11.14c-1.9-3.51-7.54-3.64-11.49-1.5-3.94,2.14-5.42,7.22-4.52,9.93Z"/>
    <path class="cls-1" d="M1284.41,627.94c1.11,3.34,6.87,4.28,10.35,2.39s5.44-6.73,3.76-9.82-6.65-3.21-10.13-1.32c-3.48,1.89-4.78,6.37-3.98,8.76Z"/>
    <path class="cls-1" d="M1348.82,533.42c.95,2.86,5.9,3.67,8.88,2.05,2.99-1.62,4.67-5.78,3.23-8.43-1.44-2.65-5.71-2.76-8.7-1.14s-4.1,5.47-3.42,7.52Z"/>
    <path class="cls-1" d="M1398.75,456.96c.98,2.84,5.68,3.76,8.46,2.25,2.78-1.51,4.27-5.55,2.83-8.19s-5.48-2.86-8.26-1.35c-2.78,1.51-3.74,5.25-3.03,7.28Z"/>
    <path class="cls-1" d="M1443.62,391.05c.9,2.43,4.61,3.43,6.71,2.29s3.07-4.47,1.83-6.76c-1.24-2.29-4.41-2.66-6.51-1.52s-2.67,4.25-2.03,5.99Z"/>
    <path class="cls-1" d="M1480.1,337.46c.8,2.16,4.1,3.05,5.97,2.04s2.73-3.97,1.63-6.01-3.92-2.37-5.79-1.35-2.38,3.78-1.81,5.32Z"/>
    <path class="cls-1" d="M1510.91,290.19c.8,2.16,4.1,3.05,5.97,2.04s2.73-3.97,1.63-6.01-3.92-2.37-5.79-1.35-2.38,3.78-1.81,5.32Z"/>
    <path class="cls-1" d="M1539.13,248.97c.73,1.95,3.66,2.78,5.31,1.89,1.65-.89,2.38-3.54,1.38-5.38s-3.5-2.16-5.15-1.27-2.07,3.37-1.55,4.77Z"/>
    <path class="cls-1" d="M1562.9,213.58c.73,1.95,3.66,2.78,5.31,1.89s2.38-3.54,1.38-5.38-3.5-2.16-5.15-1.27c-1.65,.89-2.07,3.37-1.55,4.77Z"/>
    <path class="cls-1" d="M1583.28,181.24c.68,1.82,3.43,2.58,4.98,1.74,1.55-.84,2.26-3.32,1.33-5.04-.93-1.71-3.28-2-4.83-1.16s-1.96,3.16-1.48,4.46Z"/>
    <path class="cls-1" d="M1601.58,153.79c.55,1.53,2.98,2.11,4.38,1.35s2.1-2.9,1.31-4.33c-.78-1.44-2.86-1.62-4.26-.86s-1.83,2.75-1.43,3.85Z"/>
    <path class="cls-1" d="M1618.57,129.47c.55,1.53,2.98,2.11,4.38,1.35s2.1-2.9,1.31-4.33c-.78-1.44-2.86-1.62-4.26-.86s-1.83,2.75-1.43,3.85Z"/>
    <path class="cls-1" d="M1633.95,106.64c.55,1.53,2.98,2.11,4.38,1.35s2.1-2.9,1.31-4.33-2.86-1.62-4.26-.86-1.83,2.75-1.43,3.85Z"/>
    <path class="cls-1" d="M1647.17,86.4c.55,1.53,2.98,2.11,4.38,1.35s2.1-2.9,1.31-4.33-2.86-1.62-4.26-.86-1.83,2.75-1.43,3.85Z"/>
    <path class="cls-1" d="M1660.1,66.57c.51,1.36,2.54,1.95,3.68,1.33s1.64-2.46,.94-3.74c-.7-1.28-2.43-1.52-3.57-.9-1.14,.62-1.42,2.34-1.06,3.31Z"/>
    <path class="cls-1" d="M1671.4,50.13c.53,1.35,2.41,2.02,3.41,1.47,1-.55,1.37-2.31,.67-3.6-.7-1.28-2.28-1.6-3.29-1.05s-1.18,2.21-.8,3.17Z"/>
    <path class="cls-1" d="M1681.34,34.12c.53,1.35,2.41,2.02,3.41,1.47s1.37-2.31,.67-3.6-2.28-1.6-3.29-1.05-1.18,2.21-.8,3.17Z"/>
    <path class="cls-1" d="M1691.34,20.12c.53,1.35,2.41,2.02,3.41,1.47s1.37-2.31,.67-3.6-2.28-1.6-3.29-1.05-1.18,2.21-.8,3.17Z"/>
    <path class="cls-1" d="M1700.4,6.66c.53,1.35,2.41,2.02,3.41,1.47s1.37-2.31,.67-3.6c-.7-1.28-2.28-1.6-3.29-1.05s-1.18,2.21-.8,3.17Z"/>
    <polyline class="cls-1" points="388.78 1083.94 963.78 915.94 1536.78 1083.94 1518.78 1083.94 963.78 919.94 402.78 1083.94 388.78 1083.94"/>
    <polyline class="cls-1" points=".78 501.94 896.78 .94 900.78 .94 .78 504.94 .78 501.94"/>
    <polyline class="cls-1" points="1920.78 499.94 1028.78 .94 1024.78 .94 1920.78 501.94 1920.78 499.94"/>
    <path class="cls-1" d="M1107.8,895.47c1.4,4.19,8.63,5.37,13,3,4.37-2.37,6.83-8.46,4.72-12.34s-8.36-4.03-12.72-1.66c-4.37,2.37-6,8-5,11Z"/>
    <circle class="cls-1" cx="599.78" cy="210.94" r="2"/>
    <circle class="cls-1" cx="620.78" cy="230.94" r="2"/>
    <circle class="cls-1" cx="644.28" cy="251.44" r="2.5"/>
    <circle class="cls-1" cx="668.28" cy="273.44" r="2.5"/>
    <circle class="cls-1" cx="694.28" cy="297.44" r="2.5"/>
    <circle class="cls-1" cx="723.28" cy="323.44" r="2.5"/>
    <circle class="cls-1" cx="753.78" cy="350.94" r="3"/>
    <circle class="cls-1" cx="788.28" cy="381.44" r="3.5"/>
    <circle class="cls-1" cx="825.28" cy="414.44" r="3.5"/>
    <ellipse class="cls-1" cx="865.28" cy="450.94" rx="3.5" ry="3"/>
    <ellipse class="cls-1" cx="910.78" cy="491.44" rx="4" ry="3.5"/>
    <circle class="cls-1" cx="959.28" cy="536.44" r="3.5"/>
    <circle class="cls-1" cx="966.28" cy="536.44" r="3.5"/>
    <circle class="cls-1" cx="1015.28" cy="491.44" r="3.5"/>
    <circle class="cls-1" cx="1060.28" cy="451.44" r="3.5"/>
    <circle class="cls-1" cx="1100.28" cy="414.44" r="3.5"/>
    <ellipse class="cls-1" cx="1138.28" cy="380.94" rx="3.5" ry="3"/>
    <circle class="cls-1" cx="1172.28" cy="350.44" r="3.5"/>
    <circle class="cls-1" cx="1202.78" cy="322.94" r="3"/>
    <circle class="cls-1" cx="1231.78" cy="296.94" r="3"/>
    <circle class="cls-1" cx="1257.78" cy="273.94" r="3"/>
    <circle class="cls-1" cx="1282.28" cy="251.44" r="2.5"/>
    <circle class="cls-1" cx="1304.78" cy="230.94" r="3"/>
    <circle class="cls-1" cx="1326.28" cy="211.44" r="2.5"/>
    <ellipse class="cls-1" cx="823.78" cy="9.44" rx="3" ry="2.5"/>
    <ellipse class="cls-1" cx="872.28" cy="29.94" rx="2.5" ry="3"/>
    <ellipse class="cls-1" cx="925.78" cy="52.44" rx="3" ry="3.5"/>
    <circle class="cls-1" cx="1000.28" cy="52.44" r="3.5"/>
    <circle class="cls-1" cx="1053.78" cy="29.94" r="3"/>
    <circle class="cls-1" cx="1102.28" cy="10.44" r="2.5"/>
    <circle class="cls-1" cx="177.28" cy="312.44" r="2.5"/>
    <circle class="cls-1" cx="207.78" cy="425.94" r="2"/>
    <circle class="cls-1" cx="1748.78" cy="310.94" r="2"/>
    <ellipse class="cls-1" cx="1717.78" cy="426.44" rx="2" ry="2.5"/>
    <circle class="cls-1" cx="170.78" cy="688.94" r="2"/>
    <circle class="cls-1" cx="197.78" cy="696.94" r="2"/>
    <circle class="cls-1" cx="202.78" cy="722.94" r="2"/>
    <circle class="cls-1" cx="207.78" cy="749.94" r="2"/>
    <circle class="cls-1" cx="181.78" cy="756.94" r="2"/>
    <circle class="cls-1" cx="175.78" cy="721.94" r="2"/>
    <circle class="cls-1" cx="212.78" cy="778.94" r="2"/>
    <circle class="cls-1" cx="188.78" cy="795.94" r="2"/>
    <circle class="cls-1" cx="218.78" cy="808.94" r="2"/>
    <circle class="cls-1" cx="195.78" cy="836.94" r="2"/>
    <circle class="cls-1" cx="224.28" cy="841.44" r="2.5"/>
    <circle class="cls-1" cx="231.28" cy="875.44" r="2.5"/>
    <circle class="cls-1" cx="202.78" cy="881.94" r="2"/>
    <circle class="cls-1" cx="238.28" cy="911.44" r="2.5"/>
    <circle class="cls-1" cx="210.78" cy="928.94" r="2"/>
    <circle class="cls-1" cx="245.28" cy="949.44" r="2.5"/>
    <circle class="cls-1" cx="218.78" cy="980.94" r="2"/>
    <circle class="cls-1" cx="253.28" cy="989.44" r="2.5"/>
    <circle class="cls-1" cx="261.28" cy="1032.44" r="2.5"/>
    <circle class="cls-1" cx="227.78" cy="1036.94" r="2"/>
    <circle class="cls-1" cx="270.28" cy="1078.44" r="2.5"/>
    <circle class="cls-1" cx="511.78" cy="554.94" r="2"/>
    <circle class="cls-1" cx="525.78" cy="579.94" r="2"/>
    <circle class="cls-1" cx="541.28" cy="607.44" r="2.5"/>
    <circle class="cls-1" cx="557.78" cy="634.94" r="3"/>
    <circle class="cls-1" cx="574.78" cy="663.94" r="3"/>
    <circle class="cls-1" cx="592.28" cy="695.44" r="2.5"/>
    <circle class="cls-1" cx="612.28" cy="730.44" r="2.5"/>
    <circle class="cls-1" cx="632.78" cy="765.94" r="3"/>
    <circle class="cls-1" cx="654.28" cy="804.44" r="2.5"/>
    <circle class="cls-1" cx="678.78" cy="844.94" r="3"/>
    <ellipse class="cls-1" cx="703.78" cy="889.44" rx="3" ry="3.5"/>
    <circle class="cls-1" cx="732.28" cy="937.44" r="3.5"/>
    <circle class="cls-1" cx="761.28" cy="989.44" r="3.5"/>
    <circle class="cls-1" cx="794.28" cy="1045.44" r="3.5"/>
    <circle class="cls-1" cx="925.78" cy="976.94" r="3"/>
    <circle class="cls-1" cx="874.78" cy="904.94" r="3"/>
    <circle class="cls-1" cx="828.78" cy="840.94" r="3"/>
    <circle class="cls-1" cx="788.78" cy="783.94" r="3"/>
    <circle class="cls-1" cx="751.78" cy="730.94" r="3"/>
    <circle class="cls-1" cx="717.78" cy="682.94" r="3"/>
    <circle class="cls-1" cx="687.28" cy="640.44" r="2.5"/>
    <circle class="cls-1" cx="658.78" cy="599.94" r="3"/>
    <circle class="cls-1" cx="632.78" cy="562.94" r="2"/>
    <circle class="cls-1" cx="607.78" cy="528.94" r="2"/>
    <circle class="cls-1" cx="586.28" cy="498.44" r="1.5"/>
    <circle class="cls-1" cx="1748.41" cy="312.32" r="2.5"/>
    <circle class="cls-1" cx="1717.91" cy="425.82" r="2"/>
    <circle class="cls-1" cx="1754.91" cy="688.82" r="2"/>
    <circle class="cls-1" cx="1727.91" cy="696.82" r="2"/>
    <circle class="cls-1" cx="1722.91" cy="722.82" r="2"/>
    <circle class="cls-1" cx="1717.91" cy="749.82" r="2"/>
    <circle class="cls-1" cx="1743.91" cy="756.82" r="2"/>
    <circle class="cls-1" cx="1749.91" cy="721.82" r="2"/>
    <circle class="cls-1" cx="1712.91" cy="778.82" r="2"/>
    <circle class="cls-1" cx="1736.91" cy="795.82" r="2"/>
    <circle class="cls-1" cx="1706.91" cy="808.82" r="2"/>
    <circle class="cls-1" cx="1729.91" cy="836.82" r="2"/>
    <circle class="cls-1" cx="1701.41" cy="841.32" r="2.5"/>
    <circle class="cls-1" cx="1694.41" cy="875.32" r="2.5"/>
    <circle class="cls-1" cx="1722.91" cy="881.82" r="2"/>
    <circle class="cls-1" cx="1687.41" cy="911.32" r="2.5"/>
    <circle class="cls-1" cx="1714.91" cy="928.82" r="2"/>
    <circle class="cls-1" cx="1680.41" cy="949.32" r="2.5"/>
    <circle class="cls-1" cx="1706.91" cy="980.82" r="2"/>
    <circle class="cls-1" cx="1672.41" cy="989.32" r="2.5"/>
    <circle class="cls-1" cx="1664.41" cy="1032.32" r="2.5"/>
    <circle class="cls-1" cx="1697.91" cy="1036.82" r="2"/>
    <circle class="cls-1" cx="1655.41" cy="1078.32" r="2.5"/>
    <circle class="cls-1" cx="1413.91" cy="554.82" r="2"/>
    <circle class="cls-1" cx="1399.91" cy="579.82" r="2"/>
    <circle class="cls-1" cx="1384.41" cy="607.32" r="2.5"/>
    <path class="cls-1" d="M1364.91,634.82c0,1.66,1.34,3,3,3s3-1.34,3-3"/>
    <circle class="cls-1" cx="1350.91" cy="663.82" r="3"/>
    <circle class="cls-1" cx="1333.41" cy="695.32" r="2.5"/>
    <path class="cls-1" d="M1310.91,730.32c0,1.38,1.12,2.5,2.5,2.5s2.5-1.12,2.5-2.5c0-1.38-1.12-2.5-2.5-2.5s-2.5,1.12-2.5,2.5"/>
    <circle class="cls-1" cx="1292.91" cy="765.82" r="3"/>
    <circle class="cls-1" cx="1271.41" cy="804.32" r="2.5"/>
    <circle class="cls-1" cx="1246.91" cy="844.82" r="3"/>
    <ellipse class="cls-1" cx="1221.91" cy="889.32" rx="3" ry="3.5"/>
    <circle class="cls-1" cx="1193.41" cy="937.32" r="3.5"/>
    <circle class="cls-1" cx="1164.41" cy="989.32" r="3.5"/>
    <circle class="cls-1" cx="1131.41" cy="1045.32" r="3.5"/>
    <circle class="cls-1" cx="999.91" cy="976.82" r="3"/>
    <circle class="cls-1" cx="1050.91" cy="904.82" r="3"/>
    <circle class="cls-1" cx="1096.91" cy="840.82" r="3"/>
    <circle class="cls-1" cx="1136.91" cy="783.82" r="3"/>
    <circle class="cls-1" cx="1173.91" cy="730.82" r="3"/>
    <circle class="cls-1" cx="1207.91" cy="682.82" r="3"/>
    <circle class="cls-1" cx="1238.41" cy="640.32" r="2.5"/>
    <circle class="cls-1" cx="1266.91" cy="599.82" r="3"/>
    <circle class="cls-1" cx="1292.91" cy="562.82" r="2"/>
    <circle class="cls-1" cx="1317.91" cy="528.82" r="2"/>
    <circle class="cls-1" cx="1339.41" cy="498.32" r="1.5"/>
    <polyline class="cls-1" points=".78 241.94 367.78 .94 371.78 .94 .78 245.94 .78 241.94"/>
    <polyline class="cls-1" points=".78 105.94 147.78 .94 151.78 .94 .78 109.94 .78 105.94"/>
    <polyline class="cls-1" points=".78 22.94 29.78 .94 33.78 .94 .78 25.94 .78 22.94"/>
    <polyline class="cls-1" points="1920.78 239.94 1557.78 .94 1553.78 .94 1920.78 243.94 1920.78 239.94"/>
    <polyline class="cls-1" points="1920.78 103.94 1777.78 .94 1773.78 .94 1920.78 107.94 1920.78 103.94"/>
    <polyline class="cls-1" points="1920.78 20.94 1895.78 .94 1891.78 .94 1920.78 23.94 1920.78 20.94"/>
  </g>
</svg>