<?xml version="1.0" encoding="UTF-8"?><svg id="Layer_2" xmlns="http://www.w3.org/2000/svg" xmlns:xlink="http://www.w3.org/1999/xlink" viewBox="0 0 1917.98 745.62"><defs><style>.cls-1{stroke:url(#Sky-2);}.cls-1,.cls-2,.cls-3,.cls-4,.cls-5,.cls-6,.cls-7,.cls-8,.cls-9,.cls-10,.cls-11,.cls-12,.cls-13,.cls-14,.cls-15,.cls-16,.cls-17,.cls-18,.cls-19,.cls-20,.cls-21,.cls-22,.cls-23,.cls-24,.cls-25,.cls-26,.cls-27,.cls-28,.cls-29,.cls-30,.cls-31,.cls-32,.cls-33,.cls-34,.cls-35,.cls-36,.cls-37,.cls-38,.cls-39,.cls-40,.cls-41,.cls-42,.cls-43,.cls-44,.cls-45,.cls-46,.cls-47,.cls-48,.cls-49,.cls-50,.cls-51,.cls-52,.cls-53,.cls-54,.cls-55,.cls-56,.cls-57,.cls-58,.cls-59,.cls-60,.cls-61,.cls-62,.cls-63,.cls-64,.cls-65,.cls-66,.cls-67,.cls-68,.cls-69,.cls-70,.cls-71,.cls-72,.cls-73,.cls-74,.cls-75,.cls-76,.cls-77,.cls-78,.cls-79,.cls-80{fill:none;opacity:.31;stroke-miterlimit:10;stroke-width:.75px;}.cls-2{stroke:url(#Sky-80);}.cls-3{stroke:url(#Sky-31);}.cls-4{stroke:url(#Sky-40);}.cls-5{stroke:url(#Sky-71);}.cls-6{stroke:url(#Sky-39);}.cls-7{stroke:url(#Sky-38);}.cls-8{stroke:url(#Sky-36);}.cls-9{stroke:url(#Sky-79);}.cls-10{stroke:url(#Sky-55);}.cls-11{stroke:url(#Sky-60);}.cls-12{stroke:url(#Sky-56);}.cls-13{stroke:url(#Sky-34);}.cls-14{stroke:url(#Sky-58);}.cls-15{stroke:url(#Sky-8);}.cls-16{stroke:url(#Sky-45);}.cls-17{stroke:url(#Sky-75);}.cls-18{stroke:url(#Sky-18);}.cls-19{stroke:url(#Sky-78);}.cls-20{stroke:url(#Sky-22);}.cls-21{stroke:url(#Sky-62);}.cls-22{stroke:url(#Sky-23);}.cls-23{stroke:url(#Sky-27);}.cls-24{stroke:url(#Sky-10);}.cls-25{stroke:url(#Sky-65);}.cls-26{stroke:url(#Sky-32);}.cls-27{stroke:url(#Sky-67);}.cls-28{stroke:url(#Sky-7);}.cls-29{stroke:url(#Sky-6);}.cls-30{stroke:url(#Sky-72);}.cls-31{stroke:url(#Sky-15);}.cls-32{stroke:url(#Sky-4);}.cls-33{stroke:url(#Sky-33);}.cls-34{stroke:url(#Sky-16);}.cls-35{stroke:url(#Sky-61);}.cls-36{stroke:url(#Sky-54);}.cls-37{stroke:url(#Sky-24);}.cls-38{stroke:url(#Sky-69);}.cls-39{stroke:url(#Sky-47);}.cls-40{stroke:url(#Sky-46);}.cls-41{stroke:url(#Sky-41);}.cls-42{stroke:url(#Sky-5);}.cls-43{stroke:url(#Sky-44);}.cls-44{stroke:url(#Sky-52);}.cls-45{stroke:url(#Sky-64);}.cls-81{fill:url(#radial-gradient);}.cls-46{stroke:url(#Sky-74);}.cls-47{stroke:url(#Sky-20);}.cls-48{stroke:url(#Sky-68);}.cls-49{stroke:url(#Sky-28);}.cls-50{stroke:url(#Sky-43);}.cls-51{stroke:url(#Sky-17);}.cls-52{stroke:url(#Sky-66);}.cls-82{fill:url(#radial-gradient-2);opacity:.61;}.cls-53{stroke:url(#Sky-13);}.cls-54{stroke:url(#Sky-51);}.cls-55{stroke:url(#Sky-63);}.cls-56{stroke:url(#Sky-49);}.cls-57{stroke:url(#Sky-21);}.cls-58{stroke:url(#Sky);}.cls-59{stroke:url(#Sky-37);}.cls-60{stroke:url(#Sky-35);}.cls-61{stroke:url(#Sky-42);}.cls-62{stroke:url(#Sky-76);}.cls-63{stroke:url(#Sky-14);}.cls-64{stroke:url(#Sky-57);}.cls-65{stroke:url(#Sky-50);}.cls-66{stroke:url(#Sky-70);}.cls-67{stroke:url(#Sky-29);}.cls-68{stroke:url(#Sky-48);}.cls-69{stroke:url(#Sky-12);}.cls-70{stroke:url(#Sky-9);}.cls-83{fill:#04102e;}.cls-71{stroke:url(#Sky-11);}.cls-72{stroke:url(#Sky-3);}.cls-73{stroke:url(#Sky-19);}.cls-74{stroke:url(#Sky-77);}.cls-75{stroke:url(#Sky-73);}.cls-76{stroke:url(#Sky-53);}.cls-77{stroke:url(#Sky-30);}.cls-78{stroke:url(#Sky-25);}.cls-79{stroke:url(#Sky-26);}.cls-80{stroke:url(#Sky-59);}</style><linearGradient id="Sky" x1=".43" y1="48.13" x2="144.97" y2="48.13" gradientTransform="matrix(1, 0, 0, 1, 0, 0)" gradientUnits="userSpaceOnUse"><stop offset="0" stop-color="#cce0f4"/><stop offset=".06" stop-color="#c2dcf2"/><stop offset=".17" stop-color="#a9d2ee"/><stop offset=".31" stop-color="#7fc2e7"/><stop offset=".46" stop-color="#46abdd"/><stop offset=".57" stop-color="#1e9cd7"/><stop offset=".87" stop-color="#0075be"/><stop offset=".99" stop-color="#005b97"/></linearGradient><linearGradient id="Sky-2" x1="157.12" y1="35.85" x2="289.97" y2="35.85" xlink:href="#Sky"/><linearGradient id="Sky-3" x1="304.24" y1="25.26" x2="399.61" y2="25.26" xlink:href="#Sky"/><linearGradient id="Sky-4" x1="0" y1="221.63" x2="215.03" y2="221.63" xlink:href="#Sky"/><linearGradient id="Sky-5" x1="146.35" y1="170.59" x2="342.84" y2="170.59" xlink:href="#Sky"/><linearGradient id="Sky-6" x1="290.52" y1="137.4" x2="437.46" y2="137.4" xlink:href="#Sky"/><linearGradient id="Sky-7" x1="399.52" y1="114.23" x2="512.1" y2="114.23" xlink:href="#Sky"/><linearGradient id="Sky-8" x1="480.29" y1="88.07" x2="575.03" y2="88.07" xlink:href="#Sky"/><linearGradient id="Sky-9" x1="635.19" y1="169.52" x2="714.65" y2="169.52" xlink:href="#Sky"/><linearGradient id="Sky-10" x1="586.8" y1="195.19" x2="683.34" y2="195.19" xlink:href="#Sky"/><linearGradient id="Sky-11" x1="530.32" y1="228.44" x2="643.99" y2="228.44" xlink:href="#Sky"/><linearGradient id="Sky-12" x1="459.82" y1="269.73" x2="596.59" y2="269.73" xlink:href="#Sky"/><linearGradient id="Sky-13" x1="369.82" y1="322.98" x2="537.63" y2="322.98" xlink:href="#Sky"/><linearGradient id="Sky-14" x1="248.93" y1="392.77" x2="462.64" y2="392.77" xlink:href="#Sky"/><linearGradient id="Sky-15" x1="82.96" y1="491.54" x2="360.4" y2="491.54" xlink:href="#Sky"/><linearGradient id="Sky-16" x1=".21" y1="386.76" x2="38.5" y2="386.76" xlink:href="#Sky"/><linearGradient id="Sky-17" x1="254.07" y1="686.64" x2="539.49" y2="686.64" xlink:href="#Sky"/><linearGradient id="Sky-18" x1="387.41" y1="592.82" x2="627.17" y2="592.82" xlink:href="#Sky"/><linearGradient id="Sky-19" x1="630.07" y1="613.78" x2="848.17" y2="613.78" xlink:href="#Sky"/><linearGradient id="Sky-20" x1="811" y1="695.13" x2="1058.59" y2="695.13" xlink:href="#Sky"/><linearGradient id="Sky-21" x1="566.03" y1="705.18" x2="820.16" y2="705.18" xlink:href="#Sky"/><linearGradient id="Sky-22" x1="479.31" y1="492.41" x2="679.4" y2="492.41" xlink:href="#Sky"/><linearGradient id="Sky-23" x1="551.07" y1="413.57" x2="715.95" y2="413.57" xlink:href="#Sky"/><linearGradient id="Sky-24" x1="607.01" y1="349.93" x2="742.79" y2="349.93" xlink:href="#Sky"/><linearGradient id="Sky-25" x1="650.99" y1="299.95" x2="771.46" y2="299.95" xlink:href="#Sky"/><linearGradient id="Sky-26" x1="689.7" y1="257.94" x2="793.46" y2="257.94" xlink:href="#Sky"/><linearGradient id="Sky-27" x1="721.07" y1="222.89" x2="811.36" y2="222.89" xlink:href="#Sky"/><linearGradient id="Sky-28" x1="750.47" y1="199.67" x2="826.75" y2="199.67" xlink:href="#Sky"/><linearGradient id="Sky-29" x1="823.3" y1="218.69" x2="909.47" y2="218.69" xlink:href="#Sky"/><linearGradient id="Sky-30" x1="809.79" y1="250.56" x2="903.41" y2="250.56" xlink:href="#Sky"/><linearGradient id="Sky-31" x1="792.32" y1="287.31" x2="899.14" y2="287.31" xlink:href="#Sky"/><linearGradient id="Sky-32" x1="771.55" y1="330.16" x2="892.52" y2="330.16" xlink:href="#Sky"/><linearGradient id="Sky-33" x1="745.46" y1="381.1" x2="884.74" y2="381.1" xlink:href="#Sky"/><linearGradient id="Sky-34" x1="714.41" y1="443.19" x2="874.31" y2="443.19" xlink:href="#Sky"/><linearGradient id="Sky-35" x1="676.28" y1="518.91" x2="864.89" y2="518.91" xlink:href="#Sky"/><linearGradient id="Sky-36" x1="833.97" y1="587.6" x2="1039.26" y2="587.6" xlink:href="#Sky"/><linearGradient id="Sky-37" x1="850.47" y1="501.81" x2="1027.58" y2="501.81" xlink:href="#Sky"/><linearGradient id="Sky-38" x1="863.99" y1="430.8" x2="1016.2" y2="430.8" xlink:href="#Sky"/><linearGradient id="Sky-39" x1="872.85" y1="373.25" x2="1006.48" y2="373.25" xlink:href="#Sky"/><linearGradient id="Sky-40" x1="883.25" y1="323.87" x2="1000.22" y2="323.87" xlink:href="#Sky"/><linearGradient id="Sky-41" x1="889.99" y1="283.09" x2="992.44" y2="283.09" xlink:href="#Sky"/><linearGradient id="Sky-42" x1="897.42" y1="247.66" x2="988.5" y2="247.66" xlink:href="#Sky"/><linearGradient id="Sky-43" x1="904.42" y1="217.28" x2="990.64" y2="217.28" xlink:href="#Sky"/><linearGradient id="Sky-44" x1="1.08" y1="624.39" x2="235.99" y2="624.39" xlink:href="#Sky"/><linearGradient id="Sky-45" x1="1021.41" y1="618.73" x2="1241.84" y2="618.73" xlink:href="#Sky"/><linearGradient id="Sky-46" x1="1242.12" y1="604.54" x2="1473.29" y2="604.54" xlink:href="#Sky"/><linearGradient id="Sky-47" x1="1322.51" y1="692.57" x2="1585.49" y2="692.57" xlink:href="#Sky"/><linearGradient id="Sky-48" x1="1049.76" y1="704.45" x2="1300.51" y2="704.45" xlink:href="#Sky"/><linearGradient id="Sky-49" x1="1498.47" y1="519.79" x2="1763.19" y2="519.79" xlink:href="#Sky"/><linearGradient id="Sky-50" x1="1806.67" y1="386.45" x2="1917.98" y2="386.45" xlink:href="#Sky"/><linearGradient id="Sky-51" x1="1639.89" y1="637.03" x2="1917.45" y2="637.03" xlink:href="#Sky"/><linearGradient id="Sky-52" x1="1011.82" y1="523.61" x2="1197.12" y2="523.61" xlink:href="#Sky"/><linearGradient id="Sky-53" x1="1002.87" y1="448.23" x2="1161.96" y2="448.23" xlink:href="#Sky"/><linearGradient id="Sky-54" x1="994.77" y1="385.98" x2="1133.91" y2="385.98" xlink:href="#Sky"/><linearGradient id="Sky-55" x1="989.8" y1="334.46" x2="1110.94" y2="334.46" xlink:href="#Sky"/><linearGradient id="Sky-56" x1="983.99" y1="291.27" x2="1094.54" y2="291.27" xlink:href="#Sky"/><linearGradient id="Sky-57" x1="980.18" y1="252.87" x2="1073.3" y2="252.87" xlink:href="#Sky"/><linearGradient id="Sky-58" x1="984.98" y1="224.25" x2="1054.09" y2="224.25" xlink:href="#Sky"/><linearGradient id="Sky-59" x1="1057.76" y1="203.75" x2="1138.26" y2="203.75" xlink:href="#Sky"/><linearGradient id="Sky-60" x1="1071.35" y1="232.54" x2="1164.04" y2="232.54" xlink:href="#Sky"/><linearGradient id="Sky-61" x1="1087.92" y1="267.2" x2="1195.28" y2="267.2" xlink:href="#Sky"/><linearGradient id="Sky-62" x1="1109.41" y1="310.9" x2="1230.61" y2="310.9" xlink:href="#Sky"/><linearGradient id="Sky-63" x1="1132.88" y1="361.77" x2="1272.72" y2="361.77" xlink:href="#Sky"/><linearGradient id="Sky-64" x1="1160.14" y1="425.11" x2="1324.55" y2="425.11" xlink:href="#Sky"/><linearGradient id="Sky-65" x1="1194.68" y1="504.22" x2="1389.91" y2="504.22" xlink:href="#Sky"/><linearGradient id="Sky-66" x1="1406.3" y1="417.05" x2="1611.42" y2="417.05" xlink:href="#Sky"/><linearGradient id="Sky-67" x1="1336.1" y1="345.13" x2="1500.45" y2="345.13" xlink:href="#Sky"/><linearGradient id="Sky-68" x1="1279.77" y1="289.39" x2="1416.72" y2="289.39" xlink:href="#Sky"/><linearGradient id="Sky-69" x1="1236.31" y1="245.46" x2="1350.67" y2="245.46" xlink:href="#Sky"/><linearGradient id="Sky-70" x1="1199.84" y1="212.66" x2="1296.68" y2="212.66" xlink:href="#Sky"/><linearGradient id="Sky-71" x1="1169.97" y1="186.67" x2="1244.15" y2="186.67" xlink:href="#Sky"/><linearGradient id="Sky-72" x1="1647.82" y1="257.38" x2="1901.61" y2="257.38" xlink:href="#Sky"/><linearGradient id="Sky-73" x1="1529.26" y1="207.01" x2="1714.99" y2="207.01" xlink:href="#Sky"/><linearGradient id="Sky-74" x1="1438.75" y1="167.86" x2="1582.21" y2="167.86" xlink:href="#Sky"/><linearGradient id="Sky-75" x1="1368.05" y1="156.19" x2="1463" y2="156.19" xlink:href="#Sky"/><linearGradient id="Sky-76" x1="1309.1" y1="136.35" x2="1385.86" y2="136.35" xlink:href="#Sky"/><linearGradient id="Sky-77" x1="1721.22" y1="68.73" x2="1910.45" y2="68.73" xlink:href="#Sky"/><linearGradient id="Sky-78" x1="1586.26" y1="52.74" x2="1718.46" y2="52.74" xlink:href="#Sky"/><linearGradient id="Sky-79" x1="1458.3" y1="45.26" x2="1587.26" y2="45.26" xlink:href="#Sky"/><linearGradient id="Sky-80" x1="1392.07" y1="46.43" x2="1462.43" y2="46.43" xlink:href="#Sky"/><radialGradient id="radial-gradient" cx="959.09" cy="-5.99" fx="959.09" fy="-5.99" r="1399.72" gradientTransform="matrix(1, 0, 0, 1, 0, 0)" gradientUnits="userSpaceOnUse"><stop offset="0" stop-color="#173e71"/><stop offset=".23" stop-color="#123260" stop-opacity=".75"/><stop offset=".75" stop-color="#07193c" stop-opacity=".21"/><stop offset="1" stop-color="#04102e" stop-opacity="0"/></radialGradient><radialGradient id="radial-gradient-2" cx="986.66" cy="817.39" fx="986.66" fy="817.39" r="1019.93" gradientTransform="matrix(1, 0, 0, 1, 0, 0)" gradientUnits="userSpaceOnUse"><stop offset="0" stop-color="#010b1d"/><stop offset=".32" stop-color="#010b1e" stop-opacity=".9"/><stop offset=".56" stop-color="#020d24" stop-opacity=".58"/><stop offset=".76" stop-color="#030f2d" stop-opacity=".04"/><stop offset=".77" stop-color="#04102e" stop-opacity="0"/></radialGradient></defs><g id="bg"><rect class="cls-83" x=".59" y=".35" width="1917" height="745"/></g><g id="grid"><polyline class="cls-58" points=".61 32.98 108.79 94.75 144.62 1.11"/><polyline class="cls-1" points="157.33 .77 265.17 71.13 289.61 .12"/><polyline class="cls-72" points="304.45 .6 378.13 49.66 399.26 .95"/><polyline class="cls-32" points=".29 249.31 69.15 333.87 205.23 363.76 214.64 272.1 122.66 140.82 .79 79.39"/><polygon class="cls-42" points="146.77 133.06 177.65 49.17 274.25 111.76 342.46 216.45 336.68 292.09 237.1 263.02 146.77 133.06"/><polygon class="cls-29" points="290.93 102.51 313.39 35.13 386.05 86.65 437.08 176.98 435.26 239.74 359.13 212.65 290.93 102.51"/><polygon class="cls-28" points="399.92 81.2 449.63 174.01 508.42 198.95 511.72 136.36 469.12 60.07 413.13 29.52 399.92 81.2"/><polygon class="cls-15" points="569.35 165.59 519.65 135.87 480.68 57.92 488.77 10.69 533.85 53.79 574.64 128.6 569.35 165.59"/><polygon class="cls-70" points="636.24 159.31 674.38 206.87 714.18 215.3 708.07 182.27 670.58 147.59 635.58 123.98 636.24 159.31"/><polygon class="cls-24" points="630.13 157.83 587.19 142.31 588.18 182.27 639.21 241.22 682.8 248.16 673.39 217.61 630.13 157.83"/><polygon class="cls-71" points="530.71 166.42 532.53 219.42 590.66 281.85 643.5 290.6 633.92 246.84 582.57 189.53 530.71 166.42"/><polygon class="cls-69" points="584.05 289.28 596.11 339.15 536.33 334.69 460.2 259.88 461.52 200.43 520.31 223.22 584.05 289.28"/><polygon class="cls-53" points="523.45 343.28 537.15 402.73 460.2 400.09 370.2 314.71 372.51 243.37 449.96 270.12 523.45 343.28"/><polygon class="cls-63" points="446.99 414.62 462.18 484.8 364.58 486.45 249.32 387.87 253.94 299.19 352.36 325.94 446.99 414.62"/><polygon class="cls-31" points="344.93 502.14 359.96 592.47 224.55 603.37 83.35 500.98 93.92 379.77 230.99 404.21 344.93 502.14"/><polyline class="cls-34" points=".46 312.73 38.11 344.43 24.9 460.69 1.45 459.37"/><polyline class="cls-51" points="290.12 745.4 254.58 643.81 397.78 628.14 513.7 691.55 539.15 745.08"/><polygon class="cls-18" points="408.02 607.66 387.87 519.15 485.96 511.55 595.61 573.31 626.66 637.06 540.79 674.05 408.02 607.66"/><polygon class="cls-73" points="669.26 646.64 630.62 575.63 702.62 555.48 808.31 582.89 847.61 634.09 780.9 672.07 669.26 646.64"/><polyline class="cls-47" points="869.42 744.74 811.61 689.24 885.26 645.31 988.97 645.31 1058 693.87 1004.49 745.06"/><polyline class="cls-57" points="819.87 745.39 776.93 690.56 661.34 665.13 566.55 692.54 590.32 745.38"/><polygon class="cls-20" points="498.73 498.12 601.34 557.57 678.84 535.99 647.13 479.63 556.86 427.22 479.8 427.22 498.73 498.12"/><polygon class="cls-22" points="567.43 416.21 551.58 358.53 617.19 362.93 691.17 410.05 715.39 454.97 656.82 468.62 567.43 416.21"/><polygon class="cls-37" points="692.93 397.28 742.25 389.79 725.08 350.16 659.91 306.12 607.5 302.6 620.27 351.92 692.93 397.28"/><polygon class="cls-78" points="727.72 339.15 770.88 336.07 752.82 299.52 688.97 262.09 651.54 260.76 664.75 296.87 727.72 339.15"/><polygon class="cls-79" points="753.9 293.49 792.87 291.01 779.91 264.92 728.13 228.42 690.24 222.48 701.88 260.21 753.9 293.49"/><path class="cls-23" d="M777.84,254.68l32.94-1.16-10.82-24.19-49.46-32.53s-29.15-5.94-29.06-5.7,9.74,31.71,9.74,31.71l46.65,31.87Z"/><polygon class="cls-49" points="798.24 220.91 826.14 218.93 817.39 202.75 777.59 181.11 751.01 178.47 755.96 193.33 798.24 220.91"/><polygon class="cls-67" points="841.17 223.22 824 201.76 850.25 197.79 895.5 213.81 908.88 229.66 889.39 239.57 841.17 223.22"/><polygon class="cls-77" points="826.31 254.76 810.46 233.13 838.2 228.84 889.56 247.33 902.77 261.04 877.34 272.27 826.31 254.76"/><polygon class="cls-3" points="810.79 294.23 792.95 265.17 823.83 261.87 877.01 279.37 898.47 300.51 869.58 312.73 810.79 294.23"/><polygon class="cls-26" points="790.97 338.98 772.14 304.97 804.35 300.84 868.25 320.32 891.87 345.26 856.2 359.46 790.97 338.98"/><polygon class="cls-33" points="768.68 393.31 746.05 354.18 788 346.25 856.2 368.05 884.11 396.45 844.97 415.94 768.68 393.31"/><polygon class="cls-13" points="764.71 402.4 841.67 425.02 873.7 460.2 828.13 483.98 743.41 458.87 715.01 412.64 764.71 402.4"/><polygon class="cls-60" points="676.86 485.46 709.23 540.45 807.15 568.2 864.29 535.99 826.31 495.7 737.63 469.61 676.86 485.46"/><polygon class="cls-8" points="881.8 628.31 993.43 628.8 1038.68 582.73 986 547.22 888.57 546.4 834.57 579.59 881.8 628.31"/><polygon class="cls-59" points="889.89 532.69 984.18 535.99 1026.95 496.86 978.9 468.12 896.99 467.63 851.08 493.88 889.89 532.69"/><polygon class="cls-7" points="898.97 456.73 979.56 458.71 1015.56 427.66 976.25 405.04 904.09 402.89 864.62 423.53 898.97 456.73"/><polygon class="cls-6" points="904.91 393.81 974.6 396.12 1005.81 371.35 971.8 351.87 909.21 350.38 873.54 366.56 904.91 393.81"/><polygon class="cls-4" points="912.02 342.12 971.96 344.1 999.54 319.99 969.65 305.96 915.65 303.64 883.94 319 912.02 342.12"/><polygon class="cls-41" points="914 297.53 969.65 300.01 991.78 280.2 967.34 267.81 919.94 266.16 890.71 278.54 914 297.53"/><polygon class="cls-61" points="919.28 260.21 966.18 262.03 987.81 245.68 967.17 234.29 921.76 233.3 898.14 244.03 919.28 260.21"/><polygon class="cls-50" points="921.26 227.19 972.79 229.33 989.96 219.59 972.29 206.38 918.95 205.22 905.08 211.33 921.26 227.19"/><polyline class="cls-43" points="235.63 745.42 205.23 639.04 50.66 508.25 1.12 503.63"/><polygon class="cls-16" points="1022 635.74 1072.53 584.21 1171.28 562.09 1241.3 584.87 1208.93 644.98 1081.45 675.37 1022 635.74"/><polygon class="cls-40" points="1242.62 645.64 1274 579.59 1382.99 527.08 1472.82 535.99 1451.35 622.53 1326.84 681.98 1242.62 645.64"/><polyline class="cls-39" points="1585.12 745.07 1579.83 660.51 1466.22 640.03 1335.43 699.15 1322.87 745.4"/><polyline class="cls-68" points="1050.04 744.76 1092.68 694.86 1229.41 663.81 1300.09 699.48 1290.83 745.41"/><polygon class="cls-56" points="1498.91 607.66 1515.43 520.47 1630.69 429.98 1759.5 413.13 1762.8 522.78 1625.41 626.49 1498.91 607.66"/><polyline class="cls-65" points="1917.7 259.22 1807.06 382.75 1821.59 493.39 1917.73 513.55"/><polyline class="cls-54" points="1642.91 744.74 1640.27 651.92 1797.81 529.72 1917.36 557.79"/><polygon class="cls-44" points="1062.29 569.68 1164.35 547.39 1196.55 493.06 1137.92 477.53 1054.2 496.86 1012.42 539.3 1062.29 569.68"/><polygon class="cls-76" points="1049.58 486.95 1134.46 465.48 1161.37 422.54 1114.31 409.5 1038.18 428.49 1003.5 461.85 1049.58 486.95"/><path class="cls-36" d="M1033.56,418.25c1.16-.5,74.31-16.35,74.31-16.35l25.43-38.81-39.47-9.41-68.04,16.18-30.39,29.23,38.15,19.16Z"/><path class="cls-10" d="M1025.8,362.6c.66-.33,64.73-16.18,64.73-16.18l19.82-31.71-36.5-8.42-57.96,16.02-25.43,24.28,35.34,16.02Z"/><polygon class="cls-12" points="984.68 301.33 1008.95 280.36 1060.97 266.82 1093.83 273.26 1070.05 300.67 1015.89 315.7 984.68 301.33"/><polygon class="cls-64" points="980.88 262.2 1008.29 273.42 1057.17 261.53 1072.69 239.24 1049.58 232.31 997.06 247.66 980.88 262.2"/><polygon class="cls-14" points="996.57 237.92 1040.99 228.51 1053.37 211.69 1033.72 210.57 1001.54 219.48 985.67 232.64 996.57 237.92"/><polygon class="cls-80" points="1058.33 223.55 1073.85 196.64 1116.13 176.82 1137.76 177.64 1130.16 202.58 1084.58 230.65 1058.33 223.55"/><polygon class="cls-11" points="1072.03 258.23 1091.19 233.3 1144.53 203.74 1163.52 202.58 1154.44 231.48 1101.92 262.53 1072.03 258.23"/><polygon class="cls-35" points="1088.55 296.87 1128.02 301.99 1183.01 266.98 1194.73 232.47 1157.24 237.09 1106.88 267.15 1088.55 296.87"/><polygon class="cls-21" points="1129.67 310.25 1185.65 275.08 1230.07 271.94 1215.54 314.21 1153.28 349.88 1110.02 343.61 1129.67 310.25"/><polygon class="cls-55" points="1155.43 358.64 1133.47 396.78 1182.35 406.53 1255.67 364.42 1272.18 317.02 1222.47 319.17 1155.43 358.64"/><polygon class="cls-45" points="1187.63 416.6 1160.71 463 1219.67 477.37 1305.87 429.81 1324.03 372.84 1263.43 373.83 1187.63 416.6"/><polygon class="cls-25" points="1195.23 544.58 1224.29 490.25 1315.28 441.87 1389.43 444.34 1370.77 513.87 1265.41 566.54 1195.23 544.58"/><polygon class="cls-52" points="1406.77 501.81 1499.58 505.44 1611.04 415.11 1609.72 328.75 1513.78 350.05 1422.62 432.62 1406.77 501.81"/><polygon class="cls-27" points="1336.58 419.08 1410.4 418.58 1500.07 338.49 1499.74 271.28 1426.75 289.61 1351.12 360.62 1336.58 419.08"/><polygon class="cls-48" points="1280.27 354.67 1341.54 351.37 1416.02 281.35 1416.35 224.21 1359.7 242.21 1294.14 305.46 1280.27 354.67"/><polygon class="cls-38" points="1236.84 302.82 1287.87 298.36 1350.29 235.61 1350.29 188.21 1306.36 204.4 1249.89 262.03 1236.84 302.82"/><polygon class="cls-66" points="1200.35 260.21 1243.45 255.09 1294.97 202.75 1296.29 165.09 1262.44 169.72 1209.76 225.2 1200.35 260.21"/><polygon class="cls-5" points="1170.46 223.39 1206.13 218.6 1243.78 174.51 1243.78 149.9 1212.57 152.05 1177.56 192.51 1170.46 223.39"/><path class="cls-30" d="M1652.49,391.66c1.65-.33,132.11-23.78,132.11-23.78l116.59-143.34-33.36-101.39-125.83,54.5-93.8,129.8,4.29,84.22Z"/><polygon class="cls-75" points="1529.63 319.33 1626.73 295.55 1714.58 173.02 1694.11 94.75 1596.02 144.29 1529.63 247.66 1529.63 319.33"/><polygon class="cls-46" points="1439.13 262.53 1515.43 238.42 1581.81 140.98 1566.95 73.28 1488.68 123.15 1440.13 207.7 1439.13 262.53"/><polygon class="cls-17" points="1368.46 220.58 1426.58 199.11 1462.58 131.74 1444.42 91.77 1403.23 113.24 1370.77 172.03 1368.46 220.58"/><polygon class="cls-62" points="1309.5 183.76 1358.22 170.21 1385.47 123.31 1380.02 88.97 1345.34 102.18 1311.48 142.31 1309.5 183.76"/><polyline class="cls-74" points="1910.11 .29 1876.86 76.47 1753.56 136.8 1721.63 53.57 1746.07 .73"/><polyline class="cls-19" points="1718.11 .95 1699.17 55.11 1612.2 104.65 1586.66 31.11 1597.77 .41"/><polyline class="cls-9" points="1586.91 .47 1568.6 42.78 1482.29 89.68 1458.73 38.16 1484.59 1.07"/><polyline class="cls-2" points="1462.12 1.17 1423.75 61.94 1398.84 91.66 1392.46 52.47 1420.42 .51"/></g><g id="light1"><rect class="cls-81" x=".59" y=".35" width="1917" height="745"/></g><g id="dark"><rect class="cls-82" x=".59" y=".35" width="1917" height="745"/></g></svg>